<?xml version="1.0" encoding="UTF-8" standalone="no"?>
<!DOCTYPE svg PUBLIC "-//W3C//DTD SVG 1.1//EN" "http://www.w3.org/Graphics/SVG/1.1/DTD/svg11.dtd">
<svg width="100%" height="100%" viewBox="0 0 1500 1500" version="1.1" xmlns="http://www.w3.org/2000/svg" xmlns:xlink="http://www.w3.org/1999/xlink" xml:space="preserve" xmlns:serif="http://www.serif.com/" style="fill-rule:evenodd;clip-rule:evenodd;stroke-linecap:round;stroke-linejoin:round;stroke-miterlimit:1.5;">
    <g id="GameLoom-Logo" serif:id="GameLoom Logo" transform="matrix(1.33431,0,0,1.33431,-250.733,-155.755)">
        <g id="braid" transform="matrix(1.13114,0,0,1.13114,-83.501,-142.965)">
            <path d="M967.107,465.079C1015.38,487.843 1023.35,567.793 1023.35,567.793C1009.79,558.406 984.761,556.059 984.761,556.059C980.145,526.672 970.973,499.714 958.718,474.401C959.082,474.067 959.459,473.711 959.847,473.33C961.823,471.388 964.303,468.589 967.107,465.079ZM947.638,479.779C955.695,493.876 959.843,504.856 959.843,504.856C948.133,500.664 931.154,502.03 923.516,502.955L921.327,500.438L918.816,498.669L917.01,497.998C906.963,476.651 894.561,457.505 880.426,439.98C880.729,439.963 881.032,439.947 881.337,439.931C890.648,439.444 900.298,439.199 905.697,439.386L905.71,439.532C906.045,443.55 905.632,449.153 904.546,451.958C902.469,457.328 901.537,462.381 901.536,464.505L902.801,470.554L904.581,473.471L906.704,475.605L910.971,477.954L916.444,478.703L921.351,477.623L925.372,475.538C927.433,474.213 930.117,471.959 933,469.202L933.25,470.416L934.716,473.472L937.82,476.914L942.079,479.215L946.84,479.928L947.638,479.779ZM926.511,515.045C942.201,514.789 955.585,516.428 966.386,520.187C967.816,530.589 971.607,543.274 976.619,557.14C964.943,553.103 950.774,552.473 935.359,552.509C935.33,552.509 935.302,552.509 935.274,552.509L935.274,552.073L933.734,547.07L930.245,542.744C929.068,541.727 926.638,540.204 923.521,538.726C925.197,532.875 926.467,525.17 926.526,519.126C926.541,517.627 926.536,516.267 926.511,515.045ZM933.22,560.987C974.771,563.894 1006.5,571.252 1025.7,584.295C1024.39,594.713 1024.77,607.947 1026.03,622.638C1015.79,615.716 1002.27,611.44 987.369,607.485C959.623,600.12 939.184,587.61 929.479,566.972C931.042,564.667 932.324,562.588 933.22,560.987ZM705.402,485.031C683.366,506.912 660.369,518.212 635.295,513.2C659.862,475.823 683.285,450.108 705.226,439.497C706.473,440.443 707.793,441.387 709.18,442.33C706.06,452.806 704.354,464.008 704.604,474.279C704.705,478.401 704.977,481.957 705.402,485.031ZM682.751,437.516C670.602,446.319 660.301,460.837 660.301,460.837C627.253,448.103 593.958,442.683 560.512,441.763C576.418,422.785 599.669,417.362 622.08,417.792C629.615,423.95 642.754,432.592 649.778,435.479C653.508,437.013 659.896,438.128 668.128,438.172C672.435,438.195 677.383,437.971 682.751,437.516ZM864.454,441.491C872.887,450.575 877.789,457.398 877.789,457.398C861.353,456.048 838.501,466.532 838.501,466.532C835.582,462.918 832.596,459.41 829.547,456.004C836.68,448.24 848.386,443.771 864.454,441.491ZM838.039,479.053C857.361,472.517 874.166,469.494 888.076,470.514C891.658,479.022 897.459,488.762 904.537,499.212L903.123,500.015C902.281,500.646 901.11,501.789 899.584,503.499C897.354,503.609 895.082,503.818 892.77,504.11L892.677,504.011L889.521,502.034L886.276,500.976L880.115,500.986L874.53,503.045C873.067,503.828 869.301,504.996 866.209,505.784C866.019,505.832 865.795,505.885 865.57,505.935C864.375,505.032 862.016,503.217 859.955,501.447C851.784,494.428 844.373,486.854 838.039,479.053ZM1068.69,666.468C1064.72,676.192 1061.66,689.073 1059.07,703.587C1050.98,694.253 1039.02,686.623 1025.65,678.946C998.29,663.232 981.062,643.798 979.394,617.996C1021.86,632.052 1052.76,648.022 1068.69,666.468ZM1029.04,527.272C1086.4,553.98 1070.68,649.92 1070.68,649.92C1060.02,637.343 1036.45,628.598 1036.45,628.598C1040.19,593.379 1036.81,559.816 1029.04,527.272ZM1090.27,758.157C1083.92,766.523 1077.64,778.174 1071.38,791.523C1065.97,780.412 1056.4,769.947 1045.47,759.072C1023.11,736.811 1011.5,713.581 1016.57,688.226C1053.94,712.793 1079.66,736.216 1090.27,758.157ZM1088,613.443C1136.5,654.087 1096.48,742.69 1096.48,742.69C1089.43,727.781 1068.93,713.232 1068.93,713.232C1081.66,680.184 1087.08,646.889 1088,613.443ZM1086.4,850.811C1078.11,857.251 1069.02,866.877 1059.52,878.15C1057.18,866.02 1050.64,853.434 1042.9,840.102C1027.06,812.811 1021.86,787.367 1033.31,764.187C1063.06,797.592 1081.83,826.872 1086.4,850.811ZM1121.67,710.442C1157.99,762.253 1096.41,837.48 1096.41,837.48C1093.46,821.254 1077.42,801.894 1077.42,801.894C1098.27,773.268 1112.13,742.51 1121.67,710.442ZM1054.22,936.156C1044.54,940.229 1033.27,947.174 1021.18,955.605C1022.05,943.281 1019,929.432 1014.97,914.551C1006.73,884.09 1008.29,858.166 1025.36,838.742C1045.44,878.707 1056,911.849 1054.22,936.156ZM1124.62,809.697C1146.29,869.143 1067.34,925.868 1067.34,925.868C1068.69,909.432 1058.2,886.58 1058.2,886.58C1085.76,864.326 1107.1,838.202 1124.62,809.697ZM1004.55,1014.47C994.146,1015.89 981.46,1019.69 967.595,1024.7C971.632,1013.02 972.262,998.853 972.226,983.438C972.152,951.882 980.369,927.246 1001.88,912.9C1010.94,956.702 1012.56,991.448 1004.55,1014.47ZM1105.27,910.534C1110.83,973.565 1019.88,1007.92 1019.88,1007.92C1025.44,992.396 1021.23,967.609 1021.23,967.609C1053.6,953.245 1080.97,933.534 1105.27,910.534ZM935.935,1079C925.517,1077.69 912.283,1078.07 897.592,1079.32C904.514,1069.09 908.79,1055.57 912.745,1040.66C920.841,1010.17 935.154,988.496 959.646,980.207C957.058,1024.86 949.63,1058.84 935.935,1079ZM1060.13,1004.68C1049.18,1067 952.437,1076.65 952.437,1076.65C961.824,1063.09 964.171,1038.06 964.171,1038.06C999.159,1032.56 1030.7,1020.61 1060.13,1004.68ZM853.762,1121.98C844.038,1118.02 831.157,1114.96 816.643,1112.37C825.977,1104.27 833.607,1092.32 841.284,1078.95C856.998,1051.59 876.432,1034.36 902.235,1032.69C888.178,1075.15 872.208,1106.05 853.762,1121.98ZM992.958,1082.34C966.25,1139.7 870.31,1123.98 870.31,1123.98C882.887,1113.31 891.632,1089.74 891.632,1089.74C926.851,1093.49 960.414,1090.11 992.958,1082.34ZM770.569,1139.38C762.202,1133.04 750.552,1126.75 737.203,1120.49C748.314,1115.09 758.778,1105.52 769.653,1094.59C791.914,1072.22 815.145,1060.61 840.5,1065.68C815.932,1103.06 792.509,1128.77 770.569,1139.38ZM915.283,1137.12C874.638,1185.61 786.036,1145.6 786.036,1145.6C800.945,1138.55 815.493,1118.04 815.493,1118.04C848.542,1130.78 881.837,1136.2 915.283,1137.12ZM677.914,1135.52C671.475,1127.23 661.849,1118.14 650.575,1108.63C662.706,1106.29 675.291,1099.75 688.624,1092.01C715.914,1076.17 741.359,1070.97 764.538,1082.43C731.134,1112.17 701.853,1130.95 677.914,1135.52ZM818.284,1170.79C766.473,1207.11 691.246,1145.53 691.246,1145.53C707.471,1142.58 726.831,1126.53 726.831,1126.53C755.458,1147.39 786.215,1161.24 818.284,1170.79ZM587.718,1108.37C583.644,1098.69 576.699,1087.42 568.269,1075.32C580.592,1076.2 594.441,1073.14 609.322,1069.12C639.783,1060.88 665.707,1062.44 685.131,1079.5C645.167,1099.59 612.024,1110.15 587.718,1108.37ZM714.177,1178.76C654.73,1200.44 598.005,1121.48 598.005,1121.48C614.441,1122.83 637.294,1112.35 637.294,1112.35C659.547,1139.9 685.672,1161.24 714.177,1178.76ZM509.409,1058.69C507.979,1048.29 504.187,1035.61 499.175,1021.74C510.852,1025.78 525.02,1026.41 540.436,1026.37C571.991,1026.3 596.628,1034.51 610.973,1056.03C567.171,1065.08 532.426,1066.7 509.409,1058.69ZM613.339,1159.42C550.308,1164.97 515.951,1074.03 515.951,1074.03C531.478,1079.58 556.265,1075.37 556.265,1075.37C570.629,1107.74 590.34,1135.12 613.339,1159.42ZM451.59,988.149C452.901,977.731 452.522,964.497 451.27,949.807C461.503,956.728 475.026,961.004 489.926,964.959C520.425,973.055 542.095,987.368 550.384,1011.86C505.731,1009.27 471.75,1001.85 451.59,988.149ZM525.91,1112.34C463.589,1101.39 453.942,1004.65 453.942,1004.65C467.501,1014.04 492.533,1016.38 492.533,1016.38C498.029,1051.37 509.983,1082.92 525.91,1112.34ZM408.609,905.976C412.572,896.253 415.631,883.371 418.223,868.857C426.317,878.191 438.272,885.822 451.64,893.498C479.005,909.212 496.233,928.646 497.9,954.449C455.438,940.392 424.537,924.423 408.609,905.976ZM448.253,1045.17C390.89,1018.47 406.609,922.524 406.609,922.524C417.277,935.101 440.849,943.847 440.849,943.847C437.102,979.065 440.484,1012.63 448.253,1045.17ZM387.025,814.288C393.37,805.921 399.659,794.271 405.919,780.922C411.321,792.033 420.894,802.497 431.82,813.372C454.185,835.633 465.796,858.864 460.728,884.219C423.351,859.651 397.637,836.228 387.025,814.288ZM389.292,959.002C340.797,918.357 380.811,829.755 380.811,829.755C387.86,844.664 408.365,859.212 408.365,859.212C395.631,892.261 390.211,925.556 389.292,959.002ZM390.889,721.633C399.183,715.194 408.273,705.568 417.775,694.294C420.117,706.425 426.656,719.01 434.395,732.343C450.236,759.633 455.439,785.078 443.981,808.257C414.236,774.853 395.46,745.572 390.889,721.633ZM355.623,862.003C319.3,810.192 380.884,734.965 380.884,734.965C383.834,751.19 399.875,770.55 399.875,770.55C379.021,799.177 365.168,829.934 355.623,862.003ZM414.764,640.124C424.442,636.05 435.713,629.105 447.81,620.675C446.932,632.998 449.99,646.848 454.015,661.728C462.253,692.189 460.693,718.113 443.627,737.538C423.541,697.573 412.983,664.43 414.764,640.124ZM344.369,766.583C322.694,707.137 401.649,650.411 401.649,650.411C400.299,666.848 410.783,689.7 410.783,689.7C383.23,711.953 361.889,738.078 344.369,766.583ZM464.437,561.815C474.84,560.385 487.525,556.594 501.391,551.581C497.354,563.258 496.723,577.426 496.759,592.842C496.833,624.397 488.617,649.034 467.104,663.379C458.047,619.578 456.426,584.832 464.437,561.815ZM363.711,665.745C358.16,602.714 449.106,568.357 449.106,568.357C443.549,583.884 447.761,608.671 447.761,608.671C415.387,623.035 388.012,642.746 363.711,665.745ZM533.05,497.279C543.468,498.59 556.702,498.211 571.393,496.958C564.471,507.192 560.195,520.715 556.24,535.614C548.145,566.113 533.832,587.784 509.34,596.073C511.927,551.419 519.355,517.438 533.05,497.279ZM408.857,571.598C419.809,509.278 516.548,499.63 516.548,499.63C507.161,513.189 504.814,538.222 504.814,538.222C469.826,543.718 438.282,555.672 408.857,571.598ZM615.223,454.298C624.947,458.26 637.828,461.32 652.342,463.912C643.008,472.005 635.378,483.961 627.701,497.329C611.988,524.694 592.554,541.921 566.751,543.589C580.807,501.126 596.777,470.226 615.223,454.298ZM476.027,493.941C502.735,436.579 598.675,452.298 598.675,452.298C586.098,462.966 577.353,486.538 577.353,486.538C542.134,482.791 508.571,486.173 476.027,493.941Z" style="stroke:black;stroke-width:0.66px;"/>
        </g>
        <g id="head" transform="matrix(0.786529,-0.085303,0.085303,0.786529,354.192,121.911)">
            <path d="M547.57,476.153C534.049,463.911 520.681,454.861 518.809,451.832C514.593,445.01 470.88,426.451 454.444,424.504C433.572,422.032 431.385,418.603 433.626,391.871C435.765,366.363 448.02,337.146 463.475,320.713C468.907,314.936 473.351,309.923 473.351,309.573C473.351,309.222 462.437,310.368 449.097,312.119C408.082,317.503 363.945,316.455 351.721,309.808C339.762,303.304 313.741,280.176 313.741,276.048C313.741,274.546 326.064,273.296 341.125,273.269C380.633,273.2 381.777,269.231 344.265,262.378C248.145,244.816 182.846,204.674 152.844,144.704C136.217,111.468 137.85,105.836 158.044,126.77C197.917,168.104 259.485,197.476 326.924,207.337C339.468,209.171 367.446,212.056 389.096,213.747C410.747,215.439 437.304,219.575 448.112,222.939C467.762,229.055 467.762,229.055 460.652,221.487C451.589,211.84 428.134,203.128 398.241,198.305C326.473,186.728 288.944,170.217 252.343,134.116C232.666,114.709 213.594,86.087 213.594,75.965C213.594,74.026 220.29,78.046 228.473,84.897C259.732,111.069 303.678,131.979 358.006,146.53C374.111,150.844 424.607,160.71 470.221,168.456C566.856,184.866 571.648,186.025 598.535,199.509C609.723,205.12 628.031,212.975 639.22,216.964C650.408,220.952 664.139,227.59 669.733,231.713C679.681,239.045 683.016,249.117 676.775,252.975C666.248,259.481 686.004,264.357 747.339,270.394C790.073,274.599 795.563,276.695 806,292.792C817.842,311.055 819.381,323.398 812.833,347.588C808.364,364.1 803.645,372.358 788.869,389.525C769.537,411.987 754.884,423.366 759.715,412.166C770.054,388.195 773.867,372.63 770.417,368.474C765.077,362.039 763.778,362.797 753.45,378.372C745.021,391.084 718.332,412.935 715.137,409.74C714.439,409.042 716.264,403.84 719.191,398.179C722.119,392.517 724.687,380.897 724.899,372.355C725.263,357.655 724.782,356.682 715.895,354.14C710.731,352.663 691.015,350.589 672.081,349.531C620.485,346.648 587.465,357.145 571.505,381.503C566.815,388.66 567.003,390.13 574.573,405.603C584.583,426.063 599.289,446.917 617.134,465.956C629.565,479.219 631.857,480.414 642.063,478.96C648.245,478.079 655.768,476.364 658.78,475.15C666.285,472.124 665.792,478.312 657.613,489.8C652.973,496.315 651.96,500.122 654.254,502.416C660.27,508.432 674.978,501.535 690.571,485.384C705.933,469.474 705.933,469.474 703.979,485.969C702.905,495.041 699.187,507.274 695.718,513.153C689.411,523.843 689.411,523.843 700.306,529.038C706.298,531.895 711.201,535.211 711.201,536.406C711.201,537.601 705.616,544.333 698.79,551.367C675.317,575.554 639.594,587.888 615.778,580.028C604.073,576.165 604.073,576.165 612.258,568.576C623.099,558.523 622.586,548.252 610.557,534.552C596.678,518.744 569.283,495.813 547.57,476.153ZM789.441,314.459C789.441,308.992 773.867,295.224 767.683,295.224C760.335,295.224 759.595,298.182 765.186,305.191C772.466,314.315 789.441,320.802 789.441,314.459ZM623.418,269.928C632.109,268.064 639.22,265.368 639.22,263.937C639.22,256.548 588.85,232.84 563.327,228.216C549.205,225.657 548.356,227.669 560.832,234.121C565.915,236.749 574.497,245.33 579.905,253.189C588.383,265.512 597.167,272.372 605.423,273.119C606.629,273.228 614.727,271.792 623.418,269.928Z"/>
        </g>
    </g>
</svg>
