<?xml version="1.0" encoding="UTF-8" standalone="no"?>
<!DOCTYPE svg PUBLIC "-//W3C//DTD SVG 1.1//EN" "http://www.w3.org/Graphics/SVG/1.1/DTD/svg11.dtd">
<svg width="100%" height="100%" viewBox="0 0 1500 1500" version="1.1" xmlns="http://www.w3.org/2000/svg" xmlns:xlink="http://www.w3.org/1999/xlink" xml:space="preserve" xmlns:serif="http://www.serif.com/" style="fill-rule:evenodd;clip-rule:evenodd;stroke-linecap:round;stroke-linejoin:round;stroke-miterlimit:1.5;">
    <g transform="matrix(1,0,0,1,-4650,-0.0377188)">
        <g id="Thick-Braid" serif:id="Thick Braid" transform="matrix(1,0,0,1,-141.274,0.0377188)">
            <rect x="4791.27" y="0" width="1500" height="1500" style="fill:none;"/>
            <g id="Braid" transform="matrix(0.856946,0,0,0.856946,841.822,159.453)">
                <path d="M5925.21,287.779C5995.14,367.647 5993.14,455.152 5993.62,489.759L5882.76,432.598C5875.64,377.936 5856.86,333.495 5831.81,291.101C5833.23,290.041 5834.8,288.704 5836.43,287.075C5845.11,278.424 5923.34,291.114 5925.21,287.779ZM5749.42,244.871C5768.26,263.633 5820.94,310.101 5823.77,315.17L5704.55,309.053C5688.07,286.207 5664.7,275.676 5645.52,259.119C5665.78,245.936 5664.73,242.786 5699.67,239.929C5734.37,237.092 5725.39,238.284 5749.42,244.871ZM5638.91,349.67C5766.83,315.505 5804.72,329.269 5834.13,334.887C5851.67,365.452 5740.57,398.172 5733.14,401.874C5730.45,403.213 5728.74,404.525 5726.67,404.545C5721.84,404.591 5716.96,400.92 5706.11,395.031C5681.51,381.67 5658.71,366.273 5638.91,349.67ZM5882.19,453.155C5878.29,451.027 5973.06,495.476 5993.36,512.03C5994.26,547.255 5992.96,580.115 5981.76,616.739C5953.83,585.742 5937.93,562.501 5896.87,545.087C5885.8,540.39 5875.67,535.781 5866.33,531.122C5881.77,526.725 5892.18,456.152 5882.19,453.155ZM5370.98,416.811C5332.99,470.381 5299.86,493.869 5235.06,518.123C5297.2,354.406 5337.31,322.049 5363.51,300.22C5357.62,330.928 5357.8,366.076 5364.96,395.775C5366.93,403.926 5368.92,410.882 5370.98,416.811ZM5346.01,292.902L5271.56,390.781C5169.21,386.215 5094.65,427.439 5002.2,471.24C5028.34,375.722 5090.24,328.078 5155.15,305.323C5174,314.237 5200.59,324.237 5214.93,326.811C5222.98,328.258 5236.11,327.502 5252.45,324.069C5277.53,318.803 5311.74,307.517 5346.01,292.902ZM5986.68,981.969C5957.69,1002.01 5929.49,1018.92 5892.71,1029.61C5903.36,989.263 5914.09,963.225 5906.18,919.338C5891.71,839.071 5897.75,797.5 5932.05,728.092C6003.58,901.663 5990.26,947.821 5986.68,981.969ZM6133.93,602.935C6237.01,797.805 6048.51,940.952 6005.45,969.989L5992.57,845.932C6070.33,779.219 6096.49,698.135 6133.93,602.935ZM6055.05,742.049C6040.1,773.956 6024.24,802.767 5997.85,830.516C5986.73,790.299 5982.9,762.397 5953.96,728.461C5901.05,666.393 5885.34,627.433 5880.04,550.192C6029.22,664.152 6040.95,710.74 6055.05,742.049ZM5991.45,340.419C6178.63,456.895 6087.82,675.479 6065.24,722.245L5991.66,621.54C6025.26,524.75 6007.04,441.522 5991.45,340.419ZM5827.99,1159.55C5793.11,1164.51 5760.32,1167.02 5722.65,1160.13C5750.21,1128.81 5771.46,1110.32 5784.01,1067.53C5806.97,989.265 5830.97,954.787 5892.69,908.049C5879.03,1095.28 5846.47,1130.61 5827.99,1159.55ZM6129.22,886.398C6134.26,1106.8 5901.64,1150.52 5850.15,1157.23L5894.11,1040.51C5993.5,1015.62 6053.16,954.803 6129.22,886.398ZM5151.96,1091.31C5142.64,1057.32 5136.02,1025.11 5138.1,986.872C5172.65,1010.27 5193.67,1029.02 5237.7,1036.08C5318.23,1048.99 5355.46,1068.45 5409.6,1123.79C5222.14,1133.84 5182.99,1105.99 5151.96,1091.31ZM5460.89,1355.71C5242.88,1388.49 5170.2,1163.23 5157.05,1112.99L5278.37,1141.9C5315.59,1237.36 5383.44,1288.88 5460.89,1355.71ZM5355.72,1235.24C5330.57,1210.57 5308.62,1186.07 5291.18,1151.98C5332.81,1154.8 5360.4,1160.41 5402,1144.35C5478.09,1114.96 5520.05,1113.03 5594.69,1133.59C5437.78,1236.65 5389.93,1232.3 5355.72,1235.24ZM5755.77,1308.16C5583.9,1446.23 5407.69,1288.2 5371.04,1251.41L5490.42,1215.3C5570.64,1279.05 5655.2,1289.4 5755.77,1308.16ZM5593.2,1253.16C5559.66,1242.34 5529.08,1230.25 5498.23,1207.56C5536.72,1191.46 5563.92,1184.14 5593.94,1151.17C5648.84,1090.85 5685.52,1070.36 5761.47,1055.37C5667.22,1217.72 5622.48,1235.23 5593.2,1253.16ZM5983.61,1139.46C5891.65,1339.82 5663.36,1277.28 5614.13,1260.77L5704.76,1175.09C5805.01,1196.22 5885.28,1167.66 5983.61,1139.46ZM5036.91,882.792C5043.77,848.231 5052.26,816.459 5071.23,783.189C5091.66,819.567 5102.08,845.735 5138.3,871.744C5204.55,919.312 5229.15,953.368 5252.82,1027.08C5080.66,952.223 5058.1,909.808 5036.91,882.792ZM5194.96,1257.45C4985.32,1189.26 5021.05,955.279 5031.76,904.462L5127.35,984.584C5117.94,1086.61 5155.59,1163.04 5194.96,1257.45ZM5154.92,423.78C5187.66,410.745 5218.93,400.586 5257.17,398.415C5237.76,435.348 5221.46,458.317 5219.33,502.861C5215.44,584.329 5200.23,623.487 5151.24,683.44C5120.45,498.253 5143.77,456.255 5154.92,423.78ZM4926.45,760.161C4869.67,547.144 5085.47,449.893 5133.94,431.246L5118.68,555.033C5027.94,602.618 4984.28,675.775 4926.45,760.161ZM5042.5,633.721C5065.95,607.421 5089.38,584.346 5122.61,565.303C5121.76,607.019 5117.46,634.852 5135.48,675.644C5168.43,750.25 5172.35,792.075 5155.35,867.607C5044.97,715.75 5047.05,667.753 5042.5,633.721ZM4988.6,1036.77C4842.55,871.637 4992.06,688.14 5027.07,649.784L5068.79,767.324C5008.92,850.466 5002.58,935.429 4988.6,1036.77Z" style="stroke:black;stroke-width:1.17px;"/>
            </g>
            <g id="head" transform="matrix(1.29409,-0.429363,0.429363,1.29409,4725.37,173.945)">
                <g id="Head">
                    <path id="head1" serif:id="head" d="M547.57,476.153C534.049,463.911 520.681,454.861 518.809,451.832C514.593,445.01 470.88,426.451 454.444,424.504C433.572,422.032 431.385,418.603 433.626,391.871C435.765,366.363 448.02,337.146 463.475,320.713C468.907,314.936 473.351,309.923 473.351,309.573C473.351,309.222 462.437,310.368 449.097,312.119C408.082,317.503 363.945,316.455 351.721,309.808C339.762,303.304 313.741,280.176 313.741,276.048C313.741,274.546 326.064,273.296 341.125,273.269C380.633,273.2 381.777,269.231 344.265,262.378C248.145,244.816 182.846,204.674 152.844,144.704C136.217,111.468 137.85,105.836 158.044,126.77C197.917,168.104 259.485,197.476 326.924,207.337C339.468,209.171 367.446,212.056 389.096,213.747C410.747,215.439 437.304,219.575 448.112,222.939C467.762,229.055 467.762,229.055 460.652,221.487C451.589,211.84 428.134,203.128 398.241,198.305C326.473,186.728 288.944,170.217 252.343,134.116C232.666,114.709 213.594,86.087 213.594,75.965C213.594,74.026 220.29,78.046 228.473,84.897C259.732,111.069 303.678,131.979 358.006,146.53C374.111,150.844 424.607,160.71 470.221,168.456C566.856,184.866 571.648,186.025 598.535,199.509C609.723,205.12 628.031,212.975 639.22,216.964C650.408,220.952 664.139,227.59 669.733,231.713C679.681,239.045 683.016,249.117 676.775,252.975C666.248,259.481 686.004,264.357 747.339,270.394C790.073,274.599 795.563,276.695 806,292.792C817.842,311.055 819.381,323.398 812.833,347.588C808.364,364.1 803.645,372.358 788.869,389.525C769.537,411.987 754.884,423.366 759.715,412.166C770.054,388.195 773.867,372.63 770.417,368.474C765.077,362.039 763.778,362.797 753.45,378.372C745.021,391.084 718.332,412.935 715.137,409.74C714.439,409.042 716.264,403.84 719.191,398.179C722.119,392.517 724.687,380.897 724.899,372.355C725.263,357.655 724.782,356.682 715.895,354.14C710.731,352.663 691.015,350.589 672.081,349.531C620.485,346.648 587.465,357.145 571.505,381.503C566.815,388.66 567.003,390.13 574.573,405.603C584.583,426.063 599.289,446.917 617.134,465.956C629.565,479.219 631.857,480.414 642.063,478.96C648.245,478.079 655.768,476.364 658.78,475.15C666.285,472.124 665.792,478.312 657.613,489.8C652.973,496.315 651.96,500.122 654.254,502.416C660.27,508.432 674.978,501.535 690.571,485.384C705.933,469.474 705.933,469.474 703.979,485.969C702.905,495.041 699.187,507.274 695.718,513.153C689.411,523.843 689.411,523.843 700.306,529.038C706.298,531.895 711.201,535.211 711.201,536.406C711.201,537.601 705.616,544.333 698.79,551.367C675.317,575.554 639.594,587.888 615.778,580.028C604.073,576.165 604.073,576.165 612.258,568.576C623.099,558.523 622.586,548.252 610.557,534.552C596.678,518.744 569.283,495.813 547.57,476.153ZM789.441,314.459C789.441,308.992 773.867,295.224 767.683,295.224C760.335,295.224 759.595,298.182 765.186,305.191C772.466,314.315 789.441,320.802 789.441,314.459ZM623.418,269.928C632.109,268.064 639.22,265.368 639.22,263.937C639.22,256.548 588.85,232.84 563.327,228.216C549.205,225.657 548.356,227.669 560.832,234.121C565.915,236.749 574.497,245.33 579.905,253.189C588.383,265.512 597.167,272.372 605.423,273.119C606.629,273.228 614.727,271.792 623.418,269.928Z"/>
                </g>
            </g>
        </g>
    </g>
</svg>
